<?xml version="1.0" standalone="no"?>
<!DOCTYPE svg PUBLIC "-//W3C//DTD SVG 1.1//EN" "http://www.w3.org/Graphics/SVG/1.1/DTD/svg11.dtd"><svg xmlns="http://www.w3.org/2000/svg" style="background-color:#FFF" width="500" height="500"><path stroke="black" fill="none" stroke-width="1" d="M54.05, 231.9L53.38, 231.57L53.07, 230.93L53.02, 230.46L52.99, 229.69L52.9, 228.97L52.9, 228.22L52.87, 227.16L52.79, 226.12L52.79, 225.82L52.85, 224.79L52.9, 223.82L52.96, 222.68L52.93, 222.12L52.96, 221.65L52.96, 221.18L52.9, 219.43L52.9, 217.22L53.02, 216.3L53.02, 215.4L52.96, 214.96L52.96, 214.54L52.9, 213.88L52.9, 213.22L52.72, 212.3L52.21, 211.1L51.65, 209.96L51.1, 209.24L50.49, 208.69L49.35, 207.72L48.77, 207.18L48.21, 206.69L47.6, 206.05L46.94, 205.43L46.43, 204.77L46.02, 203.99L45.79, 203.43L45.57, 202.85L45.37, 202.29L45.16, 201.76L44.85, 200.76L44.6, 199.76L44.33, 198.47L44.19, 197.11L44.16, 196.61L44.13, 196.15L44.13, 194.02L44.19, 193.46L44.47, 191.33L44.65, 190.41L45.05, 189.1L45.54, 188.35L46.19, 187.79L47.15, 187.35L48.15, 187.15L49.06, 187.32L49.76, 187.83L50.04, 188.41L50.21, 188.91L50.44, 189.38L50.62, 189.62L50.72, 189.44L50.87, 189.33L51.01, 189.44L51.24, 190.37L51.18, 190.58L51.12, 190.82L51.07, 191.05L50.72, 191.62L50.49, 192.13L50.44, 192.43L50.27, 192.74L50.21, 193.16L50.1, 193.85L50.07, 194.12L50.04, 194.43L50.15, 194.94L50.27, 195.52L50.44, 196.6L50.62, 197.29L50.72, 197.69L50.96, 198.04L51.66, 198.68L52.44, 199.24L53.24, 199.68L54.05, 200.16L54.47, 200.3L54.91, 200.44L55.84, 200.67L56.68, 201.24L56.91, 201.41L57.15, 201.41L57.49, 201.24L58.29, 200.33L58.63, 199.76L58.97, 199.24L59.15, 199.01L59.66, 197.44L59.94, 195.87L60.01, 194.49L60.01, 192.99L60.05, 191.99L59.94, 190.99L59.94, 190.4L59.9, 189.85L59.8, 188.82L59.77, 187.83L59.6, 186.52L59.49, 185.76L59.38, 184.97L59.29, 184.29L59.15, 183.6L59.02, 182.72L58.91, 181.82L58.83, 181.05L58.69, 180.27L58.63, 179.87L58.57, 178.79L58.46, 177.76L58.4, 177.35L58.37, 177.13L58.35, 176.9L58.22, 174.91L58.22, 172.88L58.26, 172.32L58.35, 171.74L58.46, 171.4L58.63, 170.78L59.04, 170.19L59.29, 169.88L59.6, 169.62L59.94, 169.43L60.29, 169.21L60.41, 169.21L60.83, 169.19L61.27, 169.1L61.79, 169.16L62.01, 169.27L62.99, 169.79L63.33, 170.44L63.55, 171.16L63.83, 172.26L64.02, 173.33L64.3, 175.05L64.54, 176.77L64.71, 178.1L65.27, 182.16L65.37, 182.57L65.4, 182.97L65.55, 183.66L65.57, 184.4L65.62, 184.57L65.79, 186.41L65.93, 187.62L66.02, 188.87L66.08, 189.16L66.16, 190.1L66.13, 191.05L66.13, 192.71L66.19, 193.97L66.26, 195.22L66.26, 195.57L66.13, 196.79L65.96, 198.04L65.85, 198.65L65.74, 199.3L65.22, 200.96L65.02, 201.57L64.76, 202.16L64.19, 203.47L63.68, 204.4L63.24, 205.08L62.82, 205.71L62.38, 206.27L61.96, 206.8L61.83, 206.96L61.66, 207.15L61.49, 207.32L61.27, 207.55L60.77, 208.04L60.24, 208.58L58.87, 209.72L57.66, 210.58L57.08, 211.07L56.68, 211.68L56.51, 212.19L56.41, 213.62L56.33, 215.05L56.33, 218.38L56.22, 219.69L56.16, 221.01L56.16, 222.04L56.12, 222.38L56.12, 223.07L55.99, 223.76L55.96, 224.02L55.94, 224.33L55.88, 224.79L55.82, 225.3L55.82, 225.6L55.76, 226.54L55.65, 227.49L55.6, 228.33L55.47, 229.26L55.33, 230.21L55.08, 231.15L54.9, 231.49L54.62, 231.79L54.05, 231.9"/><path stroke="black" fill="none" stroke-width="1" d="M76.61, 217.22L75.88, 217.27L75.29, 216.71L74.89, 215.63L74.71, 214.6L74.5, 213.51L74.34, 213.04L74.15, 212.58L73.81, 211.9L73.4, 211.27L73.12, 210.65L72.82, 210.01L72.48, 208.35L72.45, 207.55L72.54, 206.74L72.61, 205.75L72.48, 204.85L71.96, 202.27L71.86, 201.57L71.75, 200.79L71.57, 199.99L71.45, 198.96L71.34, 197.97L71.28, 197.63L71.28, 197.29L71.18, 196.71L70.89, 196.21L70.45, 195.6L70.14, 195.01L69.7, 194.35L69.34, 193.68L69.1, 193.41L68.76, 193.29L68.14, 192.99L67.39, 192.26L67.15, 191.91L67.04, 191.44L67.04, 191.1L66.92, 190.6L67.04, 190.13L67.15, 189.72L67.39, 189.38L67.93, 188.79L68.59, 188.3L68.93, 188.07L69.12, 187.93L69.11, 187.72L69.11, 187.55L68.87, 186.35L68.59, 185.21L68.43, 184.63L68.25, 184.05L68.18, 183.83L68.12, 183.26L68.01, 182.74L67.5, 179.99L67.21, 179.18L66.93, 178.27L66.59, 177.04L66.29, 175.87L66.03, 174.73L65.9, 173.57L66.11, 172.32L66.87, 171.33L67.04, 171.16L67.98, 170.62L69.04, 170.48L69.98, 170.4L70.82, 170.02L71.17, 169.96L71.34, 169.96L71.62, 170.02L72.03, 169.9L72.2, 169.96L72.48, 170.13L72.75, 170.19L73.06, 170.3L73.31, 170.47L73.51, 170.82L73.68, 170.99L73.98, 171.27L74.37, 171.51L74.89, 171.4L76.12, 171.16L77.29, 170.99L77.7, 170.93L79.98, 170.71L82.23, 170.3L82.51, 170.19L84.68, 169.51L85.54, 169.1L86.4, 168.76L88.36, 168.07L88.87, 167.83L89.5, 167.44L90.3, 167.06L91.17, 166.87L92.2, 167.04L92.97, 167.48L93.68, 168.13L93.81, 168.76L93.81, 169.51L93.81, 170.07L93.75, 170.54L93.68, 170.99L93.51, 171.44L92.71, 172.3L92.62, 172.43L92.48, 172.6L92.4, 172.71L92.26, 172.88L91.76, 173.4L91.34, 173.97L90.79, 174.74L90.07, 175.4L89.62, 175.91L89.21, 176.77L89.01, 177.79L88.93, 178.79L88.76, 179.99L88.64, 180.44L88.3, 180.88L87.73, 181.02L87.57, 181.05L87.43, 181.02L86.75, 180.27L86.4, 178.62L86.37, 178.01L86.29, 177.41L86.12, 177.01L85.95, 176.76L85.67, 176.83L85.51, 176.9L85.32, 177.01L84.89, 177.27L84.51, 177.58L83.26, 178.15L81.37, 179.18L81.11, 179.37L80.79, 179.58L80.45, 179.82L80.04, 180.04L79.65, 180.27L79.25, 180.72L79.09, 181.33L79.01, 181.99L78.98, 183.02L79.01, 184.05L79.01, 184.66L78.9, 185.26L78.92, 185.53L79.18, 185.55L79.65, 185.49L80.93, 185.3L82.17, 185.08L83.43, 184.91L83.92, 184.8L84.34, 184.63L85.03, 184.35L85.71, 184.22L86.46, 184.21L87.21, 184.52L87.95, 185.04L88.18, 185.49L88.31, 185.8L88.46, 185.9L88.7, 185.9L89.01, 186.38L89.21, 186.93L89.04, 187.21L88.7, 187.38L88.46, 187.72L88.43, 187.85L88.46, 187.96L88.46, 188.35L88.36, 188.62L88.25, 188.87L87.56, 189.73L87.15, 190.07L86.71, 190.48L86.29, 191.1L86.17, 191.37L86.01, 191.68L85.5, 192.02L84.57, 191.96L84.23, 191.79L83.65, 191.85L83.37, 192.02L82.83, 192.15L82.23, 192.08L81.62, 191.79L81.03, 191.51L80.79, 191.33L80.28, 191.27L79.59, 191.43L78.9, 191.62L77.76, 191.96L77.42, 192.13L77.18, 192.65L77.18, 192.77L77.43, 193.8L77.59, 194.83L77.93, 197.24L77.95, 197.32L77.98, 197.35L78.04, 198.62L78.11, 199.87L78.12, 201.3L78.15, 202.68L78.15, 203.37L78.5, 203.6L79.25, 203.43L79.78, 203.32L80.28, 203.19L81.31, 203.02L81.82, 202.96L83.31, 202.68L84.81, 202.4L85.51, 202.29L86.29, 202.16L87.51, 202.02L88.7, 201.88L89.23, 201.79L89.73, 201.76L90.25, 201.54L90.5, 201.37L90.7, 201.24L91.25, 200.93L91.86, 200.9L92.14, 200.85L92.43, 200.85L92.71, 200.9L93.23, 201.12L93.68, 201.37L93.81, 201.41L94.26, 201.58L94.71, 201.47L95.12, 201.29L95.57, 201.13L96.73, 201.13L97.09, 201.26L97.42, 201.41L98.04, 201.99L98.73, 203.54L98.73, 203.88L98.61, 204.19L98.5, 204.51L98.39, 204.77L98.28, 205.02L98.04, 205.37L97.7, 205.71L97.42, 205.83L97.12, 205.88L96.5, 206.24L95.81, 206.46L94.54, 206.77L93.29, 207.15L92.78, 207.26L92.11, 207.41L91.51, 207.6L91.36, 207.66L91.17, 207.72L90.32, 207.9L89.5, 208.18L88.98, 208.29L88.01, 208.46L86.86, 208.68L85.67, 208.87L84.46, 209.04L83.14, 209.44L82.86, 209.55L82.57, 209.66L81.42, 209.99L80.34, 210.52L79.87, 210.69L78.98, 210.97L78.11, 211.44L77.64, 211.79L77.42, 212.13L77.12, 213.33L77.18, 214.1L77.25, 214.94L77.18, 216.19L77.07, 216.77L76.61, 217.22"/><path stroke="black" fill="none" stroke-width="1" d="M76.61, 186.07L76.84, 185.72L76.78, 185.46L76.73, 185.21L76.43, 183.88L76.4, 183.72L76.39, 183.6L76.26, 183.49L76.26, 183.6L76.15, 184.91L76.15, 185.83L76.39, 186.01L76.61, 186.07"/><path stroke="black" fill="none" stroke-width="1" d="M116.87, 209.32L116.11, 209.38L115.32, 209.21L114.95, 209.04L114.64, 208.8L114.01, 207.94L113.78, 207.21L113.74, 207.01L113.73, 206.87L113.6, 205.29L113.39, 203.77L113.17, 202.63L112.98, 201.47L112.95, 201.3L112.92, 201.19L112.68, 199.82L112.46, 198.49L112.37, 197.8L112.23, 197.12L111.89, 194.6L111.74, 193.54L111.54, 192.43L111.37, 191.3L111.15, 190.24L110.29, 186.46L110.06, 185.21L109.78, 184.01L109.48, 182.94L109.14, 181.88L109.09, 181.65L108.65, 180.21L108.1, 178.83L108.07, 178.76L108.06, 178.72L107.89, 178.5L107.65, 178.49L107.48, 178.55L107.04, 178.72L106.62, 178.96L105.65, 179.47L104.1, 180.55L103.49, 181.02L103.01, 181.6L102.84, 182.12L102.67, 183.15L102.54, 184.35L102.43, 185.6L102.29, 186.66L102.21, 187.72L102.04, 188.69L101.74, 189.22L101.18, 189.51L100.71, 189.44L100.32, 189.16L99.92, 188.3L99.79, 187.55L99.74, 186.8L99.74, 185.08L99.71, 184.11L99.74, 183.26L99.63, 182.28L99.29, 181.37L98.43, 179.58L98.03, 178.36L97.85, 177.07L98.15, 175.86L98.82, 174.88L99.61, 174.28L100.54, 173.91L101.46, 173.68L104.49, 173.16L105.39, 173.04L106.21, 172.88L107.96, 172.66L109.78, 172.47L110.81, 172.36L111.84, 172.26L112.06, 172.26L113.06, 172.16L114.07, 172.08L114.64, 172.02L115.15, 171.96L115.39, 171.91L117.51, 171.74L118.73, 171.63L119.96, 171.51L120.99, 171.37L122.03, 171.05L123.09, 170.91L124.09, 171.22L124.42, 171.43L124.67, 171.68L125.14, 172.33L125.48, 173.05L125.48, 173.74L125.32, 174.24L125.24, 174.77L125.07, 175.22L124.84, 175.41L124.62, 175.63L124.28, 175.97L123.85, 176.31L123.29, 176.43L122.85, 176.49L122.43, 176.6L121.74, 176.94L121.12, 177.24L120.75, 177.24L120.48, 177.01L120.2, 176.83L119.7, 176.9L119.23, 176.9L118.73, 176.94L118.2, 177.01L117.79, 177.04L117.39, 177.07L116.21, 177.18L114.98, 177.29L114.46, 177.35L114.24, 177.69L114.24, 178.27L114.59, 180.04L114.81, 181.1L115.04, 182.22L115.21, 183.49L115.24, 183.91L115.32, 184.35L115.59, 185.72L115.79, 187.1L115.84, 187.32L116.18, 188.82L116.42, 190.37L116.64, 191.43L116.82, 192.47L116.93, 193.26L117.04, 194.02L117.04, 194.32L117.18, 195.21L117.34, 196.08L117.51, 197.8L117.62, 198.62L117.73, 199.48L117.76, 199.73L117.79, 199.99L117.84, 200.58L117.96, 201.24L118.18, 202.54L118.42, 203.88L118.59, 204.66L118.76, 205.43L119.1, 206.01L119.23, 206.4L119.03, 206.93L118.93, 207.49L118.89, 207.83L118.65, 208.24L118.2, 208.69L117.73, 209.1L117.28, 209.27L116.87, 209.32"/><path stroke="black" fill="none" stroke-width="1" d="M145.9, 213.96L145.37, 213.76L145.04, 213.4L144.77, 212.68L144.65, 211.96L144.52, 211.01L144.41, 210.07L144.24, 208.97L143.9, 207.9L143.77, 207.58L143.62, 207.26L142.93, 205.83L142.63, 204.68L142.63, 201.88L142.76, 201.3L143.01, 200.19L143.21, 199.13L143.43, 197.79L143.62, 196.49L143.77, 195.24L143.9, 193.97L144.01, 193.08L144.13, 192.26L144.18, 191.74L144.24, 191.13L144.35, 190.54L144.49, 189.58L144.58, 188.65L144.65, 188.18L144.9, 186.87L145.04, 185.49L145.21, 184.52L145.38, 183.22L145.51, 181.94L145.62, 180.65L145.62, 179.35L145.65, 178.69L145.73, 178.04L145.73, 176.6L145.51, 175.18L145.44, 175.05L145.31, 174.35L145.38, 173.69L145.96, 172.47L146.79, 171.56L147.91, 171.1L148.3, 171.02L148.71, 171.05L149.12, 171.16L150.08, 171.62L150.6, 172.3L151.35, 173.33L152.94, 175.8L153.66, 177.27L154.32, 178.66L154.63, 179.41L154.96, 180.1L155.3, 180.51L155.52, 181.02L155.48, 181.43L155.46, 181.6L155.58, 181.82L155.67, 182.02L155.82, 182.49L155.93, 182.89L155.93, 182.91L156.27, 183.19L156.51, 183.43L156.33, 183.71L156.25, 183.85L156.33, 184.15L156.55, 184.63L156.96, 185.76L157.37, 186.87L157.87, 188.41L158.33, 190.02L158.71, 191.13L159.08, 192.19L159.19, 192.3L159.3, 192.19L159.43, 191.85L159.71, 190.57L160.05, 189.27L160.54, 187.55L160.98, 185.83L161.26, 184.77L161.49, 183.71L161.94, 181.82L162.35, 179.99L162.43, 179.76L162.46, 179.52L162.8, 178.44L163.56, 177.46L164.69, 176.9L165.96, 176.9L166.69, 177.29L167.48, 178.1L168.13, 178.96L168.58, 179.62L169.05, 180.27L169.4, 180.77L169.68, 181.3L170.54, 182.97L171.23, 184.74L171.29, 184.91L171.74, 186.1L172.08, 187.32L172.46, 188.58L172.77, 189.85L172.83, 190.19L173.12, 191.16L173.35, 192.13L173.57, 193.51L173.8, 194.83L174.04, 196.55L174.32, 198.27L174.52, 199.47L174.66, 200.72L174.79, 201.24L174.96, 202.62L175.01, 203.02L175.35, 205.26L175.41, 205.41L175.48, 205.6L175.87, 207.9L175.87, 208.76L175.76, 209.21L175.58, 210.07L175.18, 210.87L174.77, 211.35L174.27, 211.79L173.63, 212.03L173.01, 211.85L171.86, 210.89L171.05, 209.72L170.91, 209.3L170.83, 208.87L170.66, 207.77L170.57, 207.18L170.49, 206.57L169.91, 203.26L169.79, 202.51L169.68, 201.76L169.46, 200.51L169.23, 199.21L168.99, 197.93L168.43, 194.26L168.16, 192.69L167.79, 191.16L167.27, 189.41L166.65, 187.79L166.48, 187.27L166.29, 186.93L166.07, 186.63L165.9, 186.69L165.73, 187.27L165.32, 188.85L164.93, 190.47L164.69, 191.4L164.46, 192.3L164.26, 193.15L164.07, 194.02L163.77, 195.4L163.49, 196.77L163.33, 197.8L163.21, 198.83L163.21, 199.18L163.2, 199.62L162.98, 199.99L162.82, 200.3L162.69, 200.62L162.4, 201.37L162.23, 201.76L162.15, 201.96L162.01, 202.22L161.54, 202.8L160.98, 203.13L160.54, 203.37L160.12, 203.6L159.52, 203.72L158.91, 203.54L158.15, 202.93L157.58, 202.27L156.55, 200.79L156.52, 200.71L156.51, 200.68L155.98, 199.52L155.52, 198.44L154.83, 196.43L154.32, 194.94L153.8, 193.46L153.63, 192.99L153.38, 191.96L153.07, 190.99L152.77, 189.99L152.49, 189.04L152.05, 187.76L151.57, 186.46L151.23, 185.83L150.6, 184.74L150.49, 184.63L150.37, 184.74L150.37, 184.8L150.32, 184.97L150.19, 186.18L150.02, 187.44L149.85, 189.33L149.77, 190.26L149.68, 191.16L149.6, 191.63L149.57, 192.13L149.23, 195.18L149.1, 196.07L148.99, 197.01L148.82, 198.27L148.65, 200.27L148.68, 201.08L148.6, 201.88L148.71, 203.08L148.91, 203.88L148.77, 204.74L148.57, 205.43L148.13, 206.05L147.88, 206.46L147.57, 206.87L147.22, 207.45L147.1, 208.12L147.1, 209.38L147.07, 210.26L147.1, 211.16L147.07, 211.27L147.05, 211.44L146.99, 211.79L146.99, 212.13L146.88, 213.22L146.13, 213.91L145.9, 213.96"/><path stroke="black" fill="none" stroke-width="1" d="M183.99, 209.96L183.84, 209.93L183.65, 209.9L183.3, 209.81L183.07, 209.55L182.6, 208.87L182.1, 208.29L181.6, 207.66L181.24, 206.97L181.07, 206.4L181.07, 205.83L181.04, 205.22L180.95, 204.63L180.74, 203.65L180.55, 202.68L180.52, 202.43L180.49, 202.16L180.32, 200.88L180.09, 199.58L179.71, 197.33L179.35, 195.11L179.01, 193.22L178.66, 192.26L178.15, 190.88L177.96, 190.22L177.74, 189.55L177.4, 188.41L177.12, 187.27L176.93, 186.35L176.71, 185.43L176.37, 183.88L176.3, 183.71L176.09, 182.08L175.74, 180.44L175.59, 179.33L175.57, 178.27L175.57, 177.69L176.09, 176.21L176.68, 175.49L177.57, 174.94L178.13, 174.77L178.66, 174.66L179.85, 174.8L181.01, 175.35L181.29, 175.63L181.66, 176.21L181.93, 176.83L182.18, 177.52L182.49, 178.15L182.9, 179.37L183.13, 180.62L183.3, 182.46L183.3, 182.74L183.41, 183.87L183.41, 184.98L183.59, 186.79L183.82, 188.65L184.16, 191.33L184.16, 191.44L184.41, 192.74L184.62, 194.02L184.99, 196.01L185.3, 197.97L185.65, 200.38L185.84, 201.54L186.05, 202.68L186.24, 203.8L186.45, 204.91L186.54, 205.35L186.57, 205.77L186.52, 206.62L186.27, 207.43L185.99, 207.9L185.59, 208.35L184.9, 209.32L184.8, 209.49L184.62, 209.72L183.99, 209.96"/><path stroke="black" fill="none" stroke-width="1" d="M213.72, 230.97L212.97, 230.29L212.86, 230.07L212.69, 229.49L212.52, 228.52L212.46, 228.22L212.41, 227.94L212.35, 227.05L212.17, 226.22L212.17, 225.99L211.99, 224.37L211.88, 222.73L211.88, 221.93L211.91, 221.58L211.88, 221.18L211.85, 220.4L211.83, 219.58L211.83, 218.94L211.77, 218.32L211.64, 217.16L211.53, 216.02L211.46, 214.88L211.43, 213.74L211.25, 212.87L211.08, 212.07L210.67, 211.27L210.25, 210.72L209.94, 210.18L209.71, 209.83L209.16, 209.18L208.61, 208.46L207.99, 207.55L207.61, 207.01L207.3, 206.52L206.99, 206.04L206.61, 205.66L204.44, 203.26L203.46, 202.1L203.18, 201.65L202.77, 201.24L201.39, 199.82L201.02, 199.44L200.6, 199.18L199.67, 198.49L199.56, 198.32L198.91, 197.82L198.3, 197.24L197.78, 196.77L196.85, 195.93L195.89, 195.05L195.47, 194.63L195.1, 194.19L194.75, 193.85L194.72, 193.85L194.69, 193.91L194.64, 193.97L194.64, 194.02L195.03, 196.55L195.1, 196.77L195.24, 197.9L195.1, 199.01L195.08, 199.43L195.27, 199.76L195.27, 199.99L195.27, 200.27L195.33, 200.85L195.33, 201.41L195.38, 201.99L195.5, 203.6L195.44, 204.12L195.38, 204.68L195.35, 205.01L195.38, 205.26L195.47, 205.69L195.44, 206.12L195.21, 207.04L194.81, 207.49L194.3, 207.72L194.07, 207.77L193.78, 208.07L193.75, 208.62L193.72, 209.15L193.72, 210.65L193.49, 211.68L193.03, 212.07L192.46, 212.13L191.8, 211.73L191.43, 211.1L191.25, 210.41L191.05, 209.63L190.63, 208.93L190.39, 208.47L190.17, 208.01L189.8, 206.94L189.53, 205.83L189.49, 205.18L189.49, 204.51L189.46, 204.05L189.43, 203.6L189.36, 202.8L189.36, 201.37L189.25, 200.73L189.25, 200.51L189.19, 199.41L189.08, 198.32L189.02, 198.15L188.91, 197.44L188.74, 196.72L188.53, 195.8L188.33, 194.88L188.22, 194.12L188.05, 193.33L187.96, 192.91L187.94, 192.47L187.82, 191.22L187.71, 190.27L187.53, 189.33L187.44, 188.72L187.42, 188.13L187.27, 186.69L187.19, 185.26L187.16, 184.73L187.13, 184.23L186.99, 183.18L186.85, 182.12L186.5, 179.82L186.38, 178.49L186.33, 177.18L186.33, 176.38L186.27, 175.57L186.33, 174.15L186.59, 173.4L187.02, 172.77L187.36, 172.37L187.71, 172.02L188.47, 171.63L189.32, 171.44L189.88, 171.47L190.39, 171.57L191.11, 171.71L191.89, 171.74L193.35, 171.74L194.82, 171.79L197.5, 171.96L199.02, 172.29L200.49, 172.77L202.83, 173.8L203.8, 174.35L204.66, 175.05L205, 175.4L205.3, 175.8L205.64, 176.15L205.86, 176.6L205.99, 176.83L206.58, 178.1L206.89, 179.47L206.92, 180.58L206.78, 181.71L206.72, 182.46L206.55, 183.15L206.24, 184.22L205.69, 185.21L205.63, 185.29L205.52, 185.43L204.63, 186.35L203.52, 187.15L203.08, 187.44L202.6, 187.72L202.6, 187.96L202.94, 188.24L203.77, 188.93L204.61, 189.62L205.41, 190.27L206.16, 190.99L206.96, 191.8L207.75, 192.6L207.99, 192.77L208.22, 192.99L208.72, 193.46L209.19, 193.97L209.47, 194.35L209.82, 194.66L210.22, 195.01L210.63, 195.4L211.25, 196.12L211.94, 196.83L212.28, 197.24L212.52, 197.47L212.69, 197.69L213.75, 198.85L214.86, 200.04L215.21, 200.38L215.86, 200.99L216.47, 201.65L216.82, 202.16L216.93, 202.47L217.05, 202.79L217.16, 203.65L217.1, 204.05L216.89, 204.91L216.41, 205.66L215.89, 206.12L215.33, 206.91L215.03, 207.9L214.96, 209.04L214.93, 210.24L214.93, 211.49L214.99, 212.76L214.99, 213.51L215.03, 214.13L215.03, 221.99L215, 222.8L214.99, 223.71L214.92, 224.16L214.92, 225.77L214.99, 226.22L215.07, 228.05L215.1, 229.94L214.98, 230.45L214.64, 230.93L214.18, 231.16L213.72, 230.97"/><path stroke="black" fill="none" stroke-width="1" d="M193.72, 185.26L193.57, 185.29L193.49, 185.21L193.32, 184.29L193.35, 183.94L193.27, 183.54L193.24, 183.15L193.27, 182.74L193.21, 182.51L193.08, 181.82L193.03, 181.07L192.92, 180.55L192.86, 179.93L192.86, 179.3L192.97, 178.79L193.44, 178.22L194.17, 178.04L194.47, 178.04L195.01, 178.08L195.61, 177.87L195.69, 177.8L195.72, 177.8L196.21, 177.58L196.75, 177.58L196.85, 177.62L196.92, 177.63L198.25, 177.9L199.57, 178.32L200.66, 178.83L201.09, 179.25L201.35, 179.82L201.39, 180.33L201.46, 180.96L201.46, 181.19L201.35, 181.79L201.25, 182.08L201.05, 182.29L200.6, 182.63L199.22, 183.43L199.16, 183.46L199.11, 183.49L198.13, 183.97L197.1, 184.46L196.72, 184.64L196.3, 184.63L195.78, 184.57L194.86, 184.69L193.96, 185.15L193.83, 185.21L193.72, 185.26"/><path stroke="black" fill="none" stroke-width="1" d="M244.3, 230.97L243.55, 230.29L243.44, 230.07L243.27, 229.49L243.1, 228.52L243.04, 228.22L242.99, 227.94L242.93, 227.05L242.76, 226.22L242.76, 225.99L242.57, 224.37L242.46, 222.73L242.46, 221.93L242.49, 221.58L242.46, 221.18L242.43, 220.4L242.41, 219.58L242.41, 218.94L242.35, 218.32L242.22, 217.16L242.11, 216.02L242.04, 214.88L242.01, 213.74L241.83, 212.87L241.66, 212.07L241.26, 211.27L240.83, 210.72L240.52, 210.18L240.29, 209.83L239.74, 209.18L239.19, 208.46L238.57, 207.55L238.19, 207.01L237.88, 206.52L237.57, 206.04L237.19, 205.66L235.02, 203.26L234.04, 202.1L233.76, 201.65L233.35, 201.24L231.97, 199.82L231.6, 199.44L231.18, 199.18L230.26, 198.49L230.15, 198.32L229.49, 197.82L228.88, 197.24L228.37, 196.77L227.43, 195.93L226.47, 195.05L226.05, 194.63L225.68, 194.19L225.33, 193.85L225.3, 193.85L225.27, 193.91L225.22, 193.97L225.22, 194.02L225.61, 196.55L225.68, 196.77L225.82, 197.9L225.68, 199.01L225.67, 199.43L225.85, 199.76L225.85, 199.99L225.85, 200.27L225.91, 200.85L225.91, 201.41L225.96, 201.99L226.08, 203.6L226.02, 204.12L225.96, 204.68L225.93, 205.01L225.96, 205.26L226.05, 205.69L226.02, 206.12L225.79, 207.04L225.39, 207.49L224.88, 207.72L224.65, 207.77L224.37, 208.07L224.33, 208.62L224.3, 209.15L224.3, 210.65L224.07, 211.68L223.62, 212.07L223.04, 212.13L222.38, 211.73L222.01, 211.1L221.83, 210.41L221.63, 209.63L221.21, 208.93L220.97, 208.47L220.76, 208.01L220.38, 206.94L220.12, 205.83L220.07, 205.18L220.07, 204.51L220.04, 204.05L220.01, 203.6L219.94, 202.8L219.94, 201.37L219.83, 200.73L219.83, 200.51L219.77, 199.41L219.66, 198.32L219.6, 198.15L219.49, 197.44L219.32, 196.72L219.12, 195.8L218.91, 194.88L218.8, 194.12L218.63, 193.33L218.54, 192.91L218.52, 192.47L218.4, 191.22L218.29, 190.27L218.12, 189.33L218.02, 188.72L218.01, 188.13L217.85, 186.69L217.77, 185.26L217.74, 184.73L217.71, 184.23L217.57, 183.18L217.43, 182.12L217.08, 179.82L216.96, 178.49L216.91, 177.18L216.91, 176.38L216.85, 175.57L216.91, 174.15L217.17, 173.4L217.6, 172.77L217.94, 172.37L218.29, 172.02L219.05, 171.63L219.9, 171.44L220.46, 171.47L220.97, 171.57L221.69, 171.71L222.47, 171.74L223.93, 171.74L225.4, 171.79L228.08, 171.96L229.6, 172.29L231.07, 172.77L233.41, 173.8L234.38, 174.35L235.24, 175.05L235.58, 175.4L235.88, 175.8L236.22, 176.15L236.44, 176.6L236.57, 176.83L237.16, 178.1L237.47, 179.47L237.51, 180.58L237.37, 181.71L237.3, 182.46L237.13, 183.15L236.82, 184.22L236.27, 185.21L236.21, 185.29L236.1, 185.43L235.21, 186.35L234.1, 187.15L233.66, 187.44L233.18, 187.72L233.18, 187.96L233.52, 188.24L234.35, 188.93L235.19, 189.62L235.99, 190.27L236.74, 190.99L237.54, 191.8L238.33, 192.6L238.57, 192.77L238.8, 192.99L239.3, 193.46L239.77, 193.97L240.05, 194.35L240.4, 194.66L240.8, 195.01L241.21, 195.4L241.83, 196.12L242.52, 196.83L242.87, 197.24L243.1, 197.47L243.27, 197.69L244.33, 198.85L245.44, 200.04L245.79, 200.38L246.44, 200.99L247.05, 201.65L247.4, 202.16L247.51, 202.47L247.63, 202.79L247.74, 203.65L247.68, 204.05L247.47, 204.91L246.99, 205.66L246.47, 206.12L245.91, 206.91L245.61, 207.9L245.54, 209.04L245.51, 210.24L245.51, 211.49L245.57, 212.76L245.57, 213.51L245.62, 214.13L245.62, 221.99L245.58, 222.8L245.57, 223.71L245.51, 224.16L245.51, 225.77L245.57, 226.22L245.65, 228.05L245.68, 229.94L245.56, 230.45L245.22, 230.93L244.76, 231.16L244.3, 230.97"/><path stroke="black" fill="none" stroke-width="1" d="M224.3, 185.26L224.15, 185.29L224.07, 185.21L223.9, 184.29L223.93, 183.94L223.85, 183.54L223.82, 183.15L223.85, 182.74L223.79, 182.51L223.66, 181.82L223.62, 181.07L223.51, 180.55L223.44, 179.93L223.44, 179.3L223.55, 178.79L224.02, 178.22L224.76, 178.04L225.05, 178.04L225.59, 178.08L226.19, 177.87L226.27, 177.8L226.3, 177.8L226.79, 177.58L227.33, 177.58L227.43, 177.62L227.51, 177.63L228.83, 177.9L230.15, 178.32L231.24, 178.83L231.67, 179.25L231.93, 179.82L231.97, 180.33L232.04, 180.96L232.04, 181.19L231.93, 181.79L231.83, 182.08L231.63, 182.29L231.18, 182.63L229.8, 183.43L229.74, 183.46L229.69, 183.49L228.71, 183.97L227.68, 184.46L227.3, 184.64L226.88, 184.63L226.37, 184.57L225.44, 184.69L224.54, 185.15L224.41, 185.21L224.3, 185.26"/><path stroke="black" fill="none" stroke-width="1" d="M266.05, 211.04L265.29, 211.07L264.57, 210.82L263.76, 210.44L262.9, 210.24L261.79, 209.97L260.67, 209.61L260.24, 209.38L259.8, 209.1L259.35, 208.8L258.49, 208.24L258.32, 208.01L257.82, 207.6L257.29, 207.26L255.63, 206.18L255.34, 205.88L254.79, 205.38L254.2, 204.91L252.65, 203.88L252.48, 203.8L252.24, 203.71L251.58, 203.3L251.04, 202.74L250.18, 201.54L249.45, 200.33L249.21, 199.99L248.8, 199.35L248.52, 198.72L248.29, 198.1L248.12, 197.24L247.88, 196.29L247.73, 195.35L247.54, 194.63L247.26, 193.91L247.09, 193.54L246.91, 193.12L246.87, 192.71L246.84, 191.8L247.04, 190.93L247.21, 190.3L247.37, 189.74L247.49, 189.21L247.38, 188.65L247.26, 188.38L247.15, 188.13L246.99, 187.59L247.09, 187.1L247.26, 186.63L247.43, 186.07L247.57, 185.14L248.01, 184.18L248.8, 183.08L249.32, 182.4L249.96, 181.54L250.37, 181.05L250.59, 180.62L250.87, 180.16L251.79, 179.24L251.99, 178.74L251.79, 178.27L251.52, 177.79L251.34, 177.29L251.35, 176.37L251.73, 175.57L252.21, 175.07L252.82, 174.71L253.13, 174.6L253.45, 174.49L254.06, 174.32L254.65, 174.08L255.05, 173.91L255.46, 173.85L255.85, 173.77L256.2, 173.74L257.12, 173.29L258.74, 171.99L260.32, 170.65L261.32, 169.9L262.45, 169.27L263.31, 168.99L263.93, 168.82L264.57, 168.69L265.77, 168.52L267.29, 168.37L268.74, 168.13L268.98, 168.1L269.15, 168.07L269.9, 168.07L270.63, 168.1L271.32, 168.24L272.13, 168.68L272.7, 169.38L273.17, 170.47L273.24, 171.16L273.27, 171.85L273.27, 172.37L273.45, 172.65L273.79, 172.82L275.34, 173.57L276.77, 174.54L277.46, 175.12L278.9, 176.66L279.35, 177.21L279.8, 177.76L280.04, 178.04L280.45, 178.72L281.01, 179.86L281.35, 180.82L281.65, 181.82L281.76, 182.33L281.84, 182.66L281.87, 182.91L282.01, 183.6L282.17, 184.29L282.27, 184.9L282.38, 185.55L282.55, 186.62L282.73, 187.66L282.73, 187.96L282.8, 189.24L282.9, 190.54L282.9, 191.05L282.85, 191.62L282.79, 191.91L282.67, 193.26L282.45, 194.54L281.24, 199.07L281.12, 199.57L280.96, 200.1L280.1, 202.62L279.9, 203.12L279.63, 203.65L278.6, 205.49L277.77, 206.66L276.6, 207.6L275.34, 208.69L274.83, 209.16L274.09, 209.38L273.3, 209.46L272.59, 209.62L272.01, 209.79L271.93, 209.8L271.79, 209.83L270.49, 210.13L269.21, 210.41L268.87, 210.47L268.18, 210.52L267.49, 210.69L266.05, 211.04"/><path stroke="black" fill="none" stroke-width="1" d="M264.51, 205.08L265.13, 205.02L265.6, 204.97L266.57, 204.97L267.02, 204.85L267.68, 204.66L268.18, 204.57L269.09, 204.32L270.01, 203.94L272.42, 202.91L273.27, 202.49L274.09, 201.99L274.6, 201.58L275.12, 200.9L275.34, 200.33L275.51, 199.76L275.92, 198.47L276.32, 197.18L276.85, 195.49L277.29, 193.74L277.4, 193.12L277.52, 192.43L277.57, 191.63L277.63, 190.82L277.63, 190.41L277.6, 189.62L277.57, 188.82L277.35, 186.76L276.95, 184.69L276.74, 183.8L276.54, 182.97L276.02, 181.44L275.23, 180.04L275.05, 179.87L274.2, 178.96L273.1, 178.27L272.65, 178.04L272.18, 177.82L271.67, 177.63L269.55, 177.29L269.37, 177.3L269.26, 177.46L269.23, 177.72L269.21, 177.97L269.09, 179.38L269.09, 180.85L269.09, 181.46L269.04, 182.05L269.04, 182.85L268.98, 183.35L268.92, 183.83L268.92, 184.18L268.87, 184.94L268.74, 185.77L268.7, 186.12L268.7, 187.32L268.7, 188.35L268.51, 189.19L267.95, 189.9L267.54, 189.91L267.15, 189.79L266.63, 189.33L266.48, 188.99L266.4, 188.65L266.24, 187.69L266.17, 186.69L266.17, 185.55L266.12, 184.4L266.12, 183.49L266.17, 183.01L266.17, 182.51L266.13, 181.6L266.12, 180.68L265.99, 179.35L265.88, 178.96L265.71, 178.62L265.44, 178.14L265.02, 177.8L264.66, 177.66L264.27, 177.8L263.85, 178.13L263.42, 178.49L263.2, 178.72L262.59, 179.16L262.04, 179.69L261.7, 180.02L261.31, 180.27L260.84, 180.62L260.26, 181.05L259.7, 181.54L259.46, 181.71L259.23, 181.88L259.01, 182.12L258.17, 182.98L257.29, 183.83L256.71, 184.43L256.2, 185.08L255.91, 185.49L255.51, 186.01L254.82, 187.32L254.3, 188.76L254.13, 189.79L254.09, 190.85L254.2, 191.96L254.23, 192.22L254.2, 192.47L254.24, 193.38L254.3, 194.26L254.4, 194.52L254.48, 194.77L254.71, 195.12L254.82, 195.52L254.95, 195.69L255.06, 196.04L255.34, 196.77L255.68, 197.41L255.98, 197.76L256.09, 198.07L256.26, 198.32L256.49, 198.79L256.84, 199.41L257.05, 199.65L257.23, 199.87L257.52, 200.44L257.57, 200.68L257.8, 200.9L257.92, 201.19L257.95, 201.24L257.98, 201.3L258.11, 201.47L258.49, 201.76L258.89, 202L259.07, 202.05L259.18, 201.93L259.21, 201.93L259.24, 201.99L259.29, 201.99L259.57, 202.3L259.59, 202.68L259.63, 202.85L259.8, 202.96L259.87, 203.02L260.55, 203.6L260.84, 203.65L261.07, 203.6L261.53, 203.65L261.87, 204.05L262.04, 204.33L262.87, 204.69L263.71, 204.91L264.1, 205.01L264.51, 205.08"/><path stroke="black" fill="none" stroke-width="1" d="M309.47, 230.97L308.72, 230.29L308.61, 230.07L308.44, 229.49L308.27, 228.52L308.21, 228.22L308.16, 227.94L308.1, 227.05L307.93, 226.22L307.93, 225.99L307.74, 224.37L307.63, 222.73L307.63, 221.93L307.66, 221.58L307.63, 221.18L307.6, 220.4L307.58, 219.58L307.58, 218.94L307.52, 218.32L307.4, 217.16L307.29, 216.02L307.21, 214.88L307.18, 213.74L307.01, 212.87L306.83, 212.07L306.43, 211.27L306.01, 210.72L305.69, 210.18L305.46, 209.83L304.91, 209.18L304.36, 208.46L303.74, 207.55L303.36, 207.01L303.05, 206.52L302.74, 206.04L302.36, 205.66L300.19, 203.26L299.21, 202.1L298.93, 201.65L298.52, 201.24L297.15, 199.82L296.77, 199.44L296.35, 199.18L295.43, 198.49L295.32, 198.32L294.66, 197.82L294.05, 197.24L293.54, 196.77L292.6, 195.93L291.65, 195.05L291.22, 194.63L290.85, 194.19L290.51, 193.85L290.47, 193.85L290.44, 193.91L290.4, 193.97L290.4, 194.02L290.79, 196.55L290.85, 196.77L290.99, 197.9L290.85, 199.01L290.84, 199.43L291.02, 199.76L291.02, 199.99L291.02, 200.27L291.08, 200.85L291.08, 201.41L291.13, 201.99L291.26, 203.6L291.19, 204.12L291.13, 204.68L291.1, 205.01L291.13, 205.26L291.22, 205.69L291.19, 206.12L290.96, 207.04L290.56, 207.49L290.05, 207.72L289.82, 207.77L289.54, 208.07L289.51, 208.62L289.47, 209.15L289.47, 210.65L289.24, 211.68L288.79, 212.07L288.21, 212.13L287.55, 211.73L287.18, 211.1L287.01, 210.41L286.8, 209.63L286.38, 208.93L286.15, 208.47L285.93, 208.01L285.55, 206.94L285.29, 205.83L285.24, 205.18L285.24, 204.51L285.21, 204.05L285.18, 203.6L285.11, 202.8L285.11, 201.37L285, 200.73L285, 200.51L284.94, 199.41L284.83, 198.32L284.77, 198.15L284.66, 197.44L284.49, 196.72L284.29, 195.8L284.08, 194.88L283.97, 194.12L283.8, 193.33L283.71, 192.91L283.69, 192.47L283.57, 191.22L283.46, 190.27L283.29, 189.33L283.19, 188.72L283.18, 188.13L283.02, 186.69L282.94, 185.26L282.91, 184.73L282.88, 184.23L282.74, 183.18L282.6, 182.12L282.26, 179.82L282.13, 178.49L282.08, 177.18L282.08, 176.38L282.02, 175.57L282.08, 174.15L282.34, 173.4L282.77, 172.77L283.11, 172.37L283.46, 172.02L284.22, 171.63L285.07, 171.44L285.63, 171.47L286.15, 171.57L286.86, 171.71L287.65, 171.74L289.1, 171.74L290.57, 171.79L293.26, 171.96L294.77, 172.29L296.24, 172.77L298.58, 173.8L299.55, 174.35L300.41, 175.05L300.76, 175.4L301.05, 175.8L301.4, 176.15L301.61, 176.6L301.74, 176.83L302.33, 178.1L302.65, 179.47L302.68, 180.58L302.54, 181.71L302.47, 182.46L302.3, 183.15L301.99, 184.22L301.44, 185.21L301.38, 185.29L301.27, 185.43L300.38, 186.35L299.27, 187.15L298.83, 187.44L298.35, 187.72L298.35, 187.96L298.69, 188.24L299.52, 188.93L300.36, 189.62L301.16, 190.27L301.91, 190.99L302.71, 191.8L303.51, 192.6L303.74, 192.77L303.97, 192.99L304.47, 193.46L304.94, 193.97L305.22, 194.35L305.57, 194.66L305.97, 195.01L306.38, 195.4L307.01, 196.12L307.69, 196.83L308.04, 197.24L308.27, 197.47L308.44, 197.69L309.51, 198.85L310.61, 200.04L310.96, 200.38L311.61, 200.99L312.22, 201.65L312.57, 202.16L312.68, 202.47L312.8, 202.79L312.91, 203.65L312.85, 204.05L312.65, 204.91L312.16, 205.66L311.65, 206.12L311.09, 206.91L310.79, 207.9L310.71, 209.04L310.68, 210.24L310.68, 211.49L310.74, 212.76L310.74, 213.51L310.79, 214.13L310.79, 221.99L310.76, 222.8L310.74, 223.71L310.68, 224.16L310.68, 225.77L310.74, 226.22L310.82, 228.05L310.85, 229.94L310.74, 230.45L310.4, 230.93L309.93, 231.16L309.47, 230.97"/><path stroke="black" fill="none" stroke-width="1" d="M289.47, 185.26L289.32, 185.29L289.24, 185.21L289.07, 184.29L289.1, 183.94L289.02, 183.54L288.99, 183.15L289.02, 182.74L288.96, 182.51L288.83, 181.82L288.79, 181.07L288.68, 180.55L288.61, 179.93L288.61, 179.3L288.72, 178.79L289.2, 178.22L289.93, 178.04L290.22, 178.04L290.77, 178.08L291.36, 177.87L291.44, 177.8L291.47, 177.8L291.97, 177.58L292.51, 177.58L292.6, 177.62L292.68, 177.63L294.01, 177.9L295.32, 178.32L296.41, 178.83L296.84, 179.25L297.1, 179.82L297.15, 180.33L297.21, 180.96L297.21, 181.19L297.1, 181.79L297.01, 182.08L296.8, 182.29L296.35, 182.63L294.97, 183.43L294.91, 183.46L294.86, 183.49L293.88, 183.97L292.85, 184.46L292.47, 184.64L292.05, 184.63L291.54, 184.57L290.62, 184.69L289.71, 185.15L289.58, 185.21L289.47, 185.26"/></svg>